<svg aria-hidden="true" style="position: absolute; width: 0; height: 0; overflow: hidden;" version="1.1" xmlns="http://www.w3.org/2000/svg" xmlns:xlink="http://www.w3.org/1999/xlink">
<defs>
  <symbol id="scissors" viewBox="0 0 24 28">
    <title>scissors</title>
    <path d="M20.125 10.109c0.578 0 1.156 0.109 1.672 0.359 1.5 0.672 2.203 1.906 2.203 3.531v2.766c0 0.984-0.125 1.969-0.359 2.906l-1.328 5.297c-0.438 1.781-2.031 3.031-3.875 3.031h-10.437c-2.203 0-4-1.797-4-4v-6.266l-3.734-9.812c-0.172-0.453-0.266-0.938-0.266-1.422 0-2.203 1.797-4 4-4 1.656 0 3.156 1.031 3.734 2.578l0.266 0.688v-1.766c0-2.203 1.797-4 4-4s4 1.797 4 4v4.078c0.25-0.047 0.5-0.078 0.75-0.078 1.437 0 2.75 0.828 3.375 2.109zM16.75 10c-0.688 0-1.313 0.406-1.594 1.031l-1.156 2.547-1.109 2.422h0.859c1.047 0 1.969 0.734 2.188 1.75l2.406-5.281c0.109-0.219 0.156-0.469 0.156-0.719 0-0.969-0.781-1.75-1.75-1.75zM20.203 12.109c-1.188 0-1.563 0.953-1.984 1.891l-2.063 4.531c-0.109 0.219-0.156 0.469-0.156 0.719 0 0.969 0.781 1.75 1.75 1.75 0.688 0 1.313-0.406 1.594-1.031l2.5-5.5c0.078-0.156 0.141-0.406 0.141-0.594 0-1.047-0.75-1.766-1.781-1.766zM2 6.5c0 0.25 0.047 0.484 0.125 0.719l3.875 10.156v1.078l1.594-1.734c0.422-0.453 1.031-0.719 1.656-0.719h3.094l1.656-3.641v-8.359c0-1.109-0.891-2-2-2s-2 0.891-2 2v10h-1l-3.125-8.219c-0.297-0.766-1.047-1.281-1.875-1.281-1.109 0-2 0.906-2 2zM18.438 26c0.922 0 1.719-0.625 1.937-1.516l1.328-5.297c0.203-0.781 0.297-1.609 0.297-2.422v-1.422l-2.203 4.844c-0.359 0.797-1.172 1.313-2.047 1.313-1.094 0-2.047-0.797-2.219-1.891-0.422 0.547-1.078 0.891-1.781 0.891h-3.25v-0.5h3.25c0.953 0 1.813-0.781 1.813-1.75 0-0.953-0.719-1.75-1.687-1.75h-4.625c-0.484 0-0.953 0.203-1.281 0.562l-1.969 2.125v4.813c0 1.109 0.891 2 2 2h10.437z"></path>
  </symbol>
  <symbol id="paper" viewBox="0 0 26 28">
    <title>paper</title>
    <path d="M13.75 2c-0.969 0-1.75 0.781-1.75 1.75v10.25h-0.5v-8.25c0-0.969-0.781-1.75-1.75-1.75s-1.75 0.781-1.75 1.75v12.25l-2.406-3.203c-0.375-0.5-0.969-0.797-1.594-0.797-1.109 0-2 0.906-2 2 0 0.438 0.141 0.859 0.406 1.203l6 8c0.375 0.5 0.969 0.797 1.594 0.797h10.75c0.719 0 1.344-0.516 1.484-1.219l1.188-6.328c0.047-0.297 0.078-0.609 0.078-0.922v-7.781c0-0.969-0.781-1.75-1.75-1.75s-1.75 0.781-1.75 1.75v4.25h-0.5v-8.25c0-0.969-0.781-1.75-1.75-1.75s-1.75 0.781-1.75 1.75v8.25h-0.5v-10.25c0-0.969-0.781-1.75-1.75-1.75zM13.75 0c1.406 0 2.703 0.797 3.344 2.063 0.219-0.047 0.438-0.063 0.656-0.063 2.063 0 3.75 1.687 3.75 3.75v0.266c2.172-0.125 4 1.547 4 3.734v7.781c0 0.438-0.047 0.875-0.125 1.297l-1.188 6.312c-0.297 1.656-1.75 2.859-3.437 2.859h-10.75c-1.25 0-2.453-0.609-3.203-1.594l-6-8c-0.516-0.688-0.797-1.547-0.797-2.406 0-2.203 1.781-4 4-4 0.656 0 1.453 0.156 2 0.531v-6.781c0-2.063 1.687-3.75 3.75-3.75 0.219 0 0.438 0.016 0.656 0.063 0.641-1.266 1.937-2.063 3.344-2.063z"></path>
  </symbol>
  <symbol id="rock" viewBox="0 0 24 28">
    <title>rock</title>
    <path d="M12 6c-1.109 0-2 0.891-2 2v2h-0.5v-1.453c0-0.984-0.75-1.797-1.75-1.797-0.969 0-1.75 0.781-1.75 1.75v6.703l-0.5-0.469v-2.688c0-0.984-0.75-1.797-1.75-1.797-0.969 0-1.75 0.781-1.75 1.75v3.5c0 0.484 0.203 0.938 0.547 1.281l4.844 4.625c0.453 0.453 0.609 0.969 0.609 1.594 0 0.547 0.453 1 1 1h10c0.547 0 1-0.453 1-1v-0.391c0-0.406 0.047-0.812 0.156-1.203l1.687-6.813c0.109-0.391 0.156-0.797 0.156-1.203v-3.844c0-0.984-0.75-1.797-1.75-1.797-0.969 0-1.75 0.781-1.75 1.75v0.5h-0.5v-1.953c0-0.828-0.562-1.594-1.391-1.766-0.109-0.016-0.234-0.031-0.359-0.031-0.969 0-1.75 0.781-1.75 1.75v2h-0.5v-1.906c0-1.047-0.75-1.969-1.797-2.078-0.078-0.016-0.141-0.016-0.203-0.016zM12 4c0.844 0 1.656 0.266 2.328 0.781 0.578-0.344 1.25-0.531 1.922-0.531 1.234 0 2.375 0.594 3.078 1.609 0.297-0.078 0.609-0.109 0.922-0.109 2.094 0 3.75 1.719 3.75 3.797v3.844c0 0.562-0.078 1.141-0.203 1.687l-1.703 6.813c-0.094 0.375-0.094 0.734-0.094 1.109 0 1.656-1.344 3-3 3h-10c-1.781 0-3-1.422-3-3.141l-4.813-4.625c-0.734-0.703-1.188-1.703-1.188-2.734v-3.5c0-2.063 1.687-3.75 3.75-3.75 0.094 0 0.172 0 0.25 0.016 0.125-1.984 1.781-3.516 3.75-3.516 0.531 0 1.047 0.109 1.531 0.328 0.734-0.703 1.703-1.078 2.719-1.078z"></path>
  </symbol>
</defs>
</svg>
